# xmcd
#
# Track frame offsets: 
#        150
#        19955
#        38902
#        53557
#        74840
#        94843
#        108396
#        125683
#        144048
#        169702
#        184063
#        200017
#        219288
#        237253
#        255099
#        269182
#        287383
#
# Disc length: 4136 seconds
#
# Revision: 1
# Processed by: cddbd v1.5.2PL0 Copyright (c) Steve Scherf et al.
# Submitted via: ExactAudioCopyFreeDBPlugin 1.0
#
DISCID=f9102611
DTITLE=Various Artist - Life's A Dance
DYEAR=2007
DGENRE=Country
TTITLE0=Little Big Town - Bring It On Home
TTITLE1=Tim McGraw - Don't Take The Girl
TTITLE2=Martina McBride - In My Daughter's Eyes
TTITLE3=Brad Paisley - He Didn't Have To Be
TTITLE4=LeAnn Rimes - How Do I Live
TTITLE5=Josh Turner - Me And God
TTITLE6=Lee Ann Womack - Something Worth Leaving Behind
TTITLE7=Randy Travis - Raise Him Up
TTITLE8=Wynonna - I Want To Know What Love Is
TTITLE9=John Michael Montgomery - Life's A Dance
TTITLE10=Jo Dee Messina - Bring On The Rain
TTITLE11=Rodney Atkins - Honesty (Write Me A List)
TTITLE12=Diamond Rio - I Believe
TTITLE13=Joe Nichols - If Nobody Believed In You
TTITLE14=Tracy Lawrence - If The World Had A Front Porch
TTITLE15=Mark Wills - Wish You Were Here
TTITLE16=Clay Walker - The Chain Of Love
EXTD=
EXTT0=
EXTT1=
EXTT2=
EXTT3=
EXTT4=
EXTT5=
EXTT6=
EXTT7=
EXTT8=
EXTT9=
EXTT10=
EXTT11=
EXTT12=
EXTT13=
EXTT14=
EXTT15=
EXTT16=
PLAYORDER=
